<?xml version="1.0" encoding="utf-8"?>
<!-- Generator: Adobe Illustrator 24.3.0, SVG Export Plug-In . SVG Version: 6.00 Build 0)  -->
<svg version="1.1" id="レイヤー_1" xmlns="http://www.w3.org/2000/svg" xmlns:xlink="http://www.w3.org/1999/xlink" x="0px"
	 y="0px" viewBox="0 0 663.89 184.28" style="enable-background:new 0 0 663.89 184.28;" xml:space="preserve">
<style type="text/css">
	.st0{fill:#73B02C;}
	.st1{fill:#FFFFFF;}
	.st2{fill:#040000;}
</style>
<g>
	
		<rect x="22.43" y="22.72" transform="matrix(0.9465 0.3226 -0.3226 0.9465 34.5558 -24.6477)" class="st0" width="138.41" height="138.41"/>
	<g>
		<path class="st1" d="M56.03,96.19c1.36-4-0.77-8.33-4.77-9.69c-3.97-1.35-8.32,0.73-9.69,4.77c-1.36,4,0.77,8.33,4.77,9.69
			C50.34,102.32,54.67,100.2,56.03,96.19z"/>
		
			<ellipse transform="matrix(0.3399 -0.9405 0.9405 0.3399 5.3064 185.053)" class="st1" cx="134.48" cy="88.75" rx="7.64" ry="7.64"/>
		<path class="st1" d="M125.55,117.57c0.03-3.15-0.46-6.19-1.46-9.11c-2.24-6.56-9.48-12.8-21.71-18.73l37.06-28.98
			c1.37-1.02,2.37-1.81,3.01-2.38c0.63-0.56,1.05-1.04,1.26-1.42c0.39-0.72,0.38-1.44-0.01-2.18c-0.39-0.74-1.1-1.37-2.13-1.89
			c-3.12-1.6-6.67-0.88-10.65,2.14l-0.4,0.28L92.1,85.25c-4.6-1.96-7.96-3.86-10.05-5.72c-2.17-1.92-3.75-4.33-4.75-7.25
			c-1.66-4.86-1.3-9.25,1.08-13.19c2.38-3.93,6.51-6.91,12.39-8.92c1.93-0.66,3.9-1.1,5.9-1.33c2-0.22,4.03-0.25,6.09-0.09
			c0.48-2.34,0.78-4.32,0.89-5.96c0.11-1.64,0.01-2.89-0.29-3.77c-0.86-2.53-2.41-4.11-4.63-4.76c-2.22-0.65-5.13-0.36-8.72,0.86
			c-4.97,1.7-9.41,4.45-13.35,8.27c-3.93,3.81-7.22,8.53-9.87,14.16c-1.73,3.79-2.75,7.67-3.04,11.62
			c-0.29,3.95,0.17,7.7,1.38,11.25c1.81,5.29,6.6,10.17,14.36,14.64l-38.02,29.64c-1.39,1.06-2.35,1.84-2.86,2.33
			c-0.51,0.49-0.89,0.97-1.14,1.43c-0.41,0.76-0.43,1.5-0.06,2.23c0.37,0.73,1.13,1.39,2.29,1.98c1.8,0.92,3.35,1.3,4.67,1.13
			c1.32-0.16,3.4-1.37,6.26-3.62l38.76-30.31c0.89,0.37,1.8,0.74,2.73,1.1c0.36,0.15,0.62,0.25,0.8,0.3l0.09,0.05
			c10.64,4.23,16.87,9.02,18.7,14.36c1.53,4.47,1.16,8.54-1.1,12.22c-2.26,3.68-6.13,6.45-11.6,8.32c-2.3,0.79-4.56,1.26-6.79,1.43
			c-2.23,0.17-4.52,0.03-6.88-0.41c-0.45,2-0.67,3.8-0.66,5.39c0.01,1.6,0.23,3.03,0.66,4.29c0.95,2.77,2.67,4.53,5.16,5.28
			c2.49,0.75,5.69,0.46,9.6-0.88c5.79-1.98,10.76-5.05,14.91-9.21c4.15-4.16,7.13-9.07,8.94-14.74
			C124.99,124,125.53,120.72,125.55,117.57z"/>
	</g>
</g>
<g>
	<path class="st2" d="M252.13,60.74c1.23-1.23,2.05-2.5,2.46-3.82c0.36-1.09,0.89-1.64,1.57-1.64c0.36,0,0.77,0.23,1.23,0.68
		c0.32,1.64,0.77,4.94,1.36,9.89l1.64,12.83c0,0.82-0.5,1.23-1.5,1.23c-0.55,0-1.02-0.45-1.43-1.37
		c-2.41-5.96-5.98-10.92-10.71-14.87c-4.73-3.91-9.89-5.87-15.49-5.87c-5.5,0-9.65,1.66-12.45,4.98c-2.8,3.32-4.2,6.85-4.2,10.58
		c0,4.55,1.52,8.03,4.57,10.44c3.05,2.41,9.32,5.14,18.83,8.19c7,2.18,12.25,4.3,15.73,6.34c3.48,2.05,6.4,4.91,8.77,8.6
		c2.36,3.68,3.55,7.64,3.55,11.87c0,7.19-2.98,13.62-8.94,19.31c-5.96,5.69-13.26,8.53-21.9,8.53c-7.78,0-15.6-2.43-23.47-7.3
		c-1.55,1.27-2.55,2.78-3,4.5c-0.36,1.45-0.96,2.18-1.77,2.18c-0.73,0-1.25-0.93-1.57-2.8c-0.32-1.87-0.98-10.69-1.98-26.47
		c0.18-0.55,0.66-0.82,1.43-0.82c0.68,0,1.23,0.5,1.64,1.5c7,17.6,16.78,26.4,29.34,26.4c6.23,0,11.11-1.88,14.63-5.63
		c3.52-3.75,5.29-8.06,5.29-12.93c0-3.37-0.94-6.46-2.83-9.28c-1.89-2.82-4.39-5.09-7.5-6.82c-3.12-1.73-8.04-3.66-14.77-5.8
		c-8.64-2.77-14.52-5.4-17.64-7.88c-3.12-2.48-5.4-5.28-6.86-8.39c-1.46-3.11-2.18-6.13-2.18-9.04c0-6.05,2.74-11.42,8.22-16.1
		c5.48-4.68,12.2-7.03,20.16-7.03c3,0,6.15,0.48,9.45,1.43C245.09,57.32,248.54,58.78,252.13,60.74z"/>
	<path class="st2" d="M294.57,86.59l-0.07,15.35l0.14,14.33v10.78l-0.07,8.19c0,3.27,0.53,5.36,1.6,6.24
		c1.07,0.89,2.67,1.38,4.81,1.47c2.5,0.14,3.75,0.66,3.75,1.57c0,0.73-0.48,1.09-1.43,1.09c-0.36,0-0.77-0.02-1.23-0.07
		c-4.23-0.55-8.16-0.82-11.8-0.82c-5.82,0-9.85,0.18-12.08,0.55c-0.45,0.09-0.91,0.14-1.36,0.14c-1.09,0-1.64-0.41-1.64-1.23
		c0-0.82,1.26-1.39,3.79-1.71c2.53-0.32,4.14-0.88,4.84-1.67c0.7-0.8,1.05-3.06,1.05-6.79l0.48-28.25c0-7.55-0.57-12.02-1.71-13.41
		c-1.14-1.39-3.34-2.13-6.62-2.22c-1.09,0-1.64-0.36-1.64-1.09c0-0.41,0.18-0.73,0.55-0.96c0.36-0.23,3.07-0.52,8.12-0.89
		C289.11,86.84,292.61,86.64,294.57,86.59z M287,53.23c1.73,0,3.27,0.64,4.64,1.91c1.36,1.27,2.05,2.66,2.05,4.16
		c0,1.77-0.56,3.3-1.67,4.57c-1.11,1.27-2.65,1.91-4.61,1.91c-1.73,0-3.27-0.56-4.64-1.67c-1.37-1.11-2.05-2.63-2.05-4.54
		c0-1.86,0.58-3.39,1.74-4.57C283.62,53.82,285.13,53.23,287,53.23z"/>
	<path class="st2" d="M328.82,86.8c1.09,2.68,1.75,7.21,1.98,13.58c2.82-4.46,5.95-7.8,9.38-10.03c3.43-2.23,7.17-3.34,11.22-3.34
		c3.09,0,6.08,0.58,8.97,1.74c2.89,1.16,5.12,3.16,6.69,6c1.57,2.84,2.35,7.67,2.35,14.48l-0.41,22.97c0,4.23,0.35,6.87,1.06,7.94
		c0.71,1.07,2.22,1.92,4.54,2.55c1.59,0.46,2.39,0.96,2.39,1.5c0,0.68-0.39,1.02-1.16,1.02c-0.32,0-0.64-0.02-0.96-0.06
		c-2.09-0.41-5.19-0.62-9.28-0.62c-3.68,0-7.64,0.16-11.87,0.48c-1.68,0-2.52-0.39-2.52-1.16c0-0.55,0.45-0.91,1.36-1.09
		c2.5-0.54,4.14-1.11,4.91-1.7c0.77-0.59,1.32-1.37,1.64-2.35c0.32-0.98,0.58-4.26,0.78-9.85c0.2-5.59,0.31-10.13,0.31-13.63
		c0-9.58-1.21-15.97-3.62-19.15c-2.41-3.18-5.41-4.77-9.01-4.77c-5.32,0-9.75,2.88-13.27,8.63c-3.52,5.75-5.29,15.34-5.29,28.76
		c0,6.1,0.4,9.97,1.19,11.63c0.79,1.66,2.79,2.67,5.97,3.04c1,0.09,1.5,0.52,1.5,1.3c0,0.64-0.5,0.96-1.5,0.96l-3.54-0.27
		c-1.27-0.09-5.47-0.14-12.59-0.14l-5.44,0.14c-2,0-2.99-0.36-2.99-1.09c0-0.77,1.08-1.36,3.25-1.77c2.08-0.41,3.47-1.13,4.2-2.15
		c0.72-1.02,1.21-4.43,1.46-10.21c0.25-5.78,0.37-13,0.37-21.66c0-8.06-0.55-13.07-1.64-15.03c-1.09-1.96-2.62-3.17-4.57-3.62
		c-1.77-0.41-2.66-0.98-2.66-1.71c0-0.77,0.68-1.16,2.05-1.16l5.53,0.07C320.2,87,323.27,86.94,328.82,86.8z"/>
	<path class="st2" d="M404.07,93.69c-0.18,1.77-0.27,7.46-0.27,17.06c0,12.37,0.04,19.97,0.14,22.79c0.09,2.82,0.85,5.13,2.29,6.93
		c1.43,1.8,3.83,2.9,7.2,3.31c1.27,0.14,1.91,0.59,1.91,1.36c0,0.64-0.5,0.95-1.5,0.95l-11.46-0.68c-7.41,0-12.4,0.18-14.94,0.55
		h-0.75c-1,0-1.5-0.33-1.5-1c0-0.8,0.8-1.31,2.39-1.53c2.09-0.27,3.57-0.75,4.43-1.44c0.86-0.68,1.44-1.65,1.74-2.9
		c0.3-1.25,0.58-5.64,0.85-13.15c0.27-7.52,0.41-14.99,0.41-22.41c0-2.96-0.02-6.24-0.07-9.84c-3.41-0.23-6-0.36-7.78-0.41
		c-1.77-0.04-2.66-0.55-2.66-1.5c0-1.64,0.41-2.71,1.23-3.21c0.82-0.5,3.89-0.82,9.21-0.96c0-7.98,0.61-14.33,1.84-19.07
		c1.23-4.74,3.87-8.67,7.91-11.79c4.05-3.12,9.12-4.68,15.21-4.68c5.69,0,9.78,1,12.28,3c2.5,2,3.75,4.48,3.75,7.44
		c0,3.18-1.5,4.78-4.5,4.78c-1.09,0-2-0.39-2.73-1.16c-0.73-0.77-1.82-2.59-3.27-5.46c-2.09-4.09-5.03-6.14-8.8-6.14
		c-5.41,0-8.9,2.69-10.47,8.07c-1.57,5.38-2.35,10.98-2.35,16.82c0,2.6,0.09,5.33,0.27,8.2c1.41-0.04,2.55-0.07,3.41-0.07
		c3.55,0,6.17,0.15,7.88,0.44c1.71,0.3,2.56,0.88,2.56,1.74c0,0.77-0.27,1.57-0.82,2.39c-0.55,0.82-1.68,1.31-3.41,1.47
		c-1.73,0.16-3.59,0.24-5.59,0.24C407.05,93.83,405.71,93.78,404.07,93.69z"/>
	<path class="st2" d="M425.29,116.72c0-8,2.89-15.04,8.66-21.13c5.78-6.09,12.87-9.13,21.29-9.13c7.92,0,14.73,2.73,20.43,8.18
		c5.71,5.45,8.56,12.27,8.56,20.45c0,8.27-3,15.53-9.01,21.77c-6,6.25-13.01,9.37-21.02,9.37c-7.91,0-14.71-2.87-20.4-8.62
		C428.14,131.86,425.29,124.9,425.29,116.72z M436.35,116.31c0,7.81,1.81,14.31,5.42,19.49c3.62,5.18,8.09,7.77,13.41,7.77
		c4.87,0,9.15-2.43,12.86-7.29c3.71-4.86,5.56-11.31,5.56-19.35c0-7.18-1.78-13.57-5.36-19.18c-3.57-5.61-8.2-8.42-13.88-8.42
		c-5.28,0-9.6,2.56-12.96,7.67C438.03,102.1,436.35,108.54,436.35,116.31z"/>
	<path class="st2" d="M510.78,86.8c1.09,2.68,1.75,7.21,1.98,13.58c2.82-4.46,5.95-7.8,9.38-10.03c3.43-2.23,7.17-3.34,11.22-3.34
		c3.09,0,6.08,0.58,8.97,1.74c2.89,1.16,5.12,3.16,6.69,6c1.57,2.84,2.35,7.67,2.35,14.48l-0.41,22.97c0,4.23,0.35,6.87,1.06,7.94
		c0.7,1.07,2.22,1.92,4.54,2.55c1.59,0.46,2.39,0.96,2.39,1.5c0,0.68-0.39,1.02-1.16,1.02c-0.32,0-0.64-0.02-0.96-0.06
		c-2.09-0.41-5.18-0.62-9.28-0.62c-3.68,0-7.64,0.16-11.87,0.48c-1.68,0-2.52-0.39-2.52-1.16c0-0.55,0.45-0.91,1.37-1.09
		c2.5-0.54,4.14-1.11,4.91-1.7c0.77-0.59,1.32-1.37,1.64-2.35c0.32-0.98,0.58-4.26,0.78-9.85c0.21-5.59,0.31-10.13,0.31-13.63
		c0-9.58-1.21-15.97-3.62-19.15c-2.41-3.18-5.41-4.77-9.01-4.77c-5.32,0-9.75,2.88-13.27,8.63c-3.53,5.75-5.29,15.34-5.29,28.76
		c0,6.1,0.4,9.97,1.19,11.63c0.8,1.66,2.79,2.67,5.97,3.04c1,0.09,1.5,0.52,1.5,1.3c0,0.64-0.5,0.96-1.5,0.96l-3.54-0.27
		c-1.27-0.09-5.47-0.14-12.59-0.14l-5.44,0.14c-2,0-2.99-0.36-2.99-1.09c0-0.77,1.08-1.36,3.25-1.77c2.08-0.41,3.48-1.13,4.2-2.15
		c0.72-1.02,1.21-4.43,1.46-10.21c0.25-5.78,0.37-13,0.37-21.66c0-8.06-0.55-13.07-1.64-15.03c-1.09-1.96-2.62-3.17-4.57-3.62
		c-1.77-0.41-2.66-0.98-2.66-1.71c0-0.77,0.68-1.16,2.05-1.16l5.53,0.07C502.16,87,505.23,86.94,510.78,86.8z"/>
	<path class="st2" d="M587.13,86.59l-0.07,15.35l0.14,14.33v10.78l-0.07,8.19c0,3.27,0.53,5.36,1.6,6.24
		c1.07,0.89,2.67,1.38,4.81,1.47c2.5,0.14,3.75,0.66,3.75,1.57c0,0.73-0.48,1.09-1.43,1.09c-0.36,0-0.77-0.02-1.23-0.07
		c-4.23-0.55-8.17-0.82-11.8-0.82c-5.82,0-9.85,0.18-12.08,0.55c-0.46,0.09-0.91,0.14-1.37,0.14c-1.09,0-1.64-0.41-1.64-1.23
		c0-0.82,1.26-1.39,3.79-1.71c2.53-0.32,4.14-0.88,4.84-1.67c0.7-0.8,1.05-3.06,1.05-6.79l0.48-28.25c0-7.55-0.57-12.02-1.71-13.41
		c-1.14-1.39-3.34-2.13-6.62-2.22c-1.09,0-1.64-0.36-1.64-1.09c0-0.41,0.18-0.73,0.55-0.96c0.36-0.23,3.07-0.52,8.12-0.89
		C581.67,86.84,585.17,86.64,587.13,86.59z M579.56,53.23c1.73,0,3.27,0.64,4.64,1.91c1.37,1.27,2.05,2.66,2.05,4.16
		c0,1.77-0.56,3.3-1.67,4.57c-1.12,1.27-2.65,1.91-4.61,1.91c-1.73,0-3.28-0.56-4.64-1.67c-1.36-1.11-2.05-2.63-2.05-4.54
		c0-1.86,0.58-3.39,1.74-4.57C576.18,53.82,577.69,53.23,579.56,53.23z"/>
	<path class="st2" d="M639.32,136.47c-2.23,3.23-4.89,5.65-7.98,7.27c-3.09,1.61-6.6,2.42-10.51,2.42c-4.6,0-8.2-1.23-10.81-3.68
		c-2.62-2.46-3.92-5.69-3.92-9.69c0-3,0.79-5.8,2.35-8.39c1.57-2.59,3.37-4.46,5.39-5.6c2.02-1.14,5.58-2.57,10.68-4.3
		c7.28-2.41,11.64-4.41,13.1-6.01c1.45-1.59,2.18-3.66,2.18-6.22c0-4.06-0.96-7.22-2.87-9.48c-1.91-2.26-4.62-3.39-8.12-3.39
		c-2.87,0-5.03,0.64-6.48,1.92c-1.46,1.33-2.57,3.91-3.34,7.74c-0.82,4.2-2.62,6.3-5.39,6.3c-1,0-2.11-0.5-3.31-1.5
		c-1.21-1-1.81-2.48-1.81-4.44c0-3.41,1.89-6.38,5.66-8.9c3.78-2.52,8.96-3.79,15.56-3.79c5.23,0,9.4,0.74,12.52,2.22
		c3.11,1.48,5.07,3.18,5.87,5.09c0.8,1.91,1.19,5.6,1.19,11.07l-0.41,18.03c0,6.97,0.42,11.92,1.26,14.86
		c0.84,2.94,2.4,4.41,4.67,4.41c0.45,0,1.09-0.07,1.91-0.2l1.16-0.14c1.05,0,1.57,0.38,1.57,1.14c0,1.74-4.48,2.61-13.44,2.61
		c-2.59,0-4.33-0.6-5.22-1.81C639.9,142.8,639.42,140.29,639.32,136.47z M639.32,109.86c-1.36,1.77-4.46,3.93-9.28,6.48
		c-4.78,2.46-8.21,4.8-10.3,7.03c-2.09,2.28-3.14,5-3.14,8.19c0,2.87,0.85,5.3,2.56,7.3c1.71,2,3.83,3,6.38,3
		c2.64,0,5.12-0.81,7.44-2.42c2.32-1.61,4.04-3.67,5.15-6.17c1.11-2.5,1.67-6.21,1.67-11.12
		C639.8,118.46,639.64,114.36,639.32,109.86z"/>
</g>
<g>
</g>
<g>
</g>
<g>
</g>
<g>
</g>
<g>
</g>
<g>
</g>
<g>
</g>
<g>
</g>
<g>
</g>
<g>
</g>
<g>
</g>
<g>
</g>
<g>
</g>
<g>
</g>
<g>
</g>
</svg>
